<svg width="682.667" height="682.667" viewBox="-48 0 512 512" xmlns="http://www.w3.org/2000/svg" xmlns:xlink="http://www.w3.org/1999/xlink" overflow="hidden"><path d="M355.488 62.0469C316.148 22.1328 263.801 0.0976562 208.086 0L207.719 0C93.1836 0-2.84217e-14 93.1836-2.84217e-14 207.719-2.84217e-14 228.594 3.09375 249.203 9.19141 268.977 17.957 297.41 33.6641 324.375 54.6094 346.953L207.719 512 360.922 346.848C380.531 325.707 395.059 301.711 404.105 275.523 411.328 254.613 415.133 232.707 415.418 210.418 416.129 154.676 394.848 101.98 355.488 62.0469ZM207.719 337.52C136.145 337.52 77.9141 279.293 77.9141 207.719 77.9141 136.145 136.145 77.9141 207.719 77.9141 279.293 77.9141 337.52 136.145 337.52 207.719 337.52 279.289 279.293 337.52 207.719 337.52Z" fill="#C55A11"/><path d="M207.719 107.945C157.805 107.945 116.336 144.785 109.074 192.703L127.711 192.703 152.293 171.273 178.418 206.336 216.406 134.859 250.215 191.406 266.332 175.023 286.754 192.703 306.359 192.703C299.098 144.785 257.629 107.945 207.719 107.945Z" fill="#C55A11"/><path d="M267.977 216.172 244.371 240.164 217.945 195.957 182.676 262.312 147.586 215.219 138.965 222.734 109.074 222.734C116.34 270.648 157.805 307.488 207.719 307.488 257.629 307.488 299.098 270.648 306.363 222.734L275.559 222.734Z" fill="#C55A11"/></svg>